<svg width="106" height="27" viewBox="0 0 106 27" fill="none" xmlns="http://www.w3.org/2000/svg">
<path d="M8.10379 14.6887V24.1432H20.4285V14.6887C20.3722 12.6627 19.044 8.6445 14.1817 8.77957C9.31937 8.91463 8.10379 12.7752 8.10379 14.6887Z" stroke="#BF2828" stroke-width="1.52941"/>
<path d="M4.81652 25.6176C4.98886 24.8943 5.63933 24.3564 6.41544 24.3564H21.9479C22.724 24.3564 23.3745 24.8943 23.5468 25.6176H4.81652Z" fill="#BF2828" stroke="#BF2828" stroke-width="0.764706"/>
<rect x="-0.00012207" y="14.1821" width="5.4026" height="1.01299" rx="0.506494" fill="#BF2828"/>
<rect x="23.6363" y="14.1821" width="5.4026" height="1.01299" rx="0.506494" fill="#BF2828"/>
<rect x="2.19019" y="6.75317" width="5.4026" height="1.01299" rx="0.506494" transform="rotate(29.7087 2.19019 6.75317)" fill="#BF2828"/>
<rect x="22.2856" y="9.43115" width="5.4026" height="1.01299" rx="0.506494" transform="rotate(-29.71 22.2856 9.43115)" fill="#BF2828"/>
<rect x="7.62378" y="1.68848" width="5.4026" height="1.01299" rx="0.506494" transform="rotate(59.2715 7.62378 1.68848)" fill="#BF2828"/>
<rect x="18.5713" y="6.33203" width="5.4026" height="1.01299" rx="0.506494" transform="rotate(-59.27 18.5713 6.33203)" fill="#BF2828"/>
<rect x="13.8441" y="5.40222" width="5.4026" height="1.01299" rx="0.506494" transform="rotate(-90 13.8441 5.40222)" fill="#BF2828"/>
<path d="M9.62329 14.3508V22.2858H17.0519C14.7558 19.0443 14.4068 12.9439 14.5194 10.2988C10.7376 10.2988 9.67957 13.0001 9.62329 14.3508Z" fill="#BF2828" stroke="#BF2828" stroke-width="0.573529"/>
<path d="M45.1415 25.8235H41.1029L35.1764 8.35474H38.9163L42.2022 18.75C42.4013 19.427 42.5925 20.1519 42.7757 20.9246C42.9589 21.6893 43.0784 22.2469 43.1341 22.5974C43.2218 21.8566 43.5205 20.5741 44.0303 18.75L47.34 8.35474H51.0799L45.1415 25.8235ZM57.4838 25.8235H53.7798V8.35474H57.4838V25.8235ZM72.431 11.3897H66.0744V15.2251H71.9769V18.2601H66.0744V22.7647H72.431V25.8235H62.3703V8.35474H72.431V11.3897ZM93.5913 25.8235H89.3735L87.0077 16.647C86.9121 16.2726 86.7608 15.5995 86.5537 14.6277C86.3386 13.5205 86.2151 12.8315 86.1833 12.5606C86.1434 12.935 86.0239 13.632 85.8248 14.6516C85.6257 15.6712 85.4823 16.3443 85.3947 16.6709L83.0408 25.8235H78.8349L74.3781 8.35474H78.0224L80.2568 17.8897C80.6312 19.5465 80.914 21.072 81.1051 22.4659C81.1529 22.0039 81.2644 21.283 81.4397 20.3033C81.6229 19.3155 81.7822 18.5946 81.9176 18.1406L84.4627 8.35474H87.9636L90.5086 18.1406C90.6361 18.6504 90.7795 19.3514 90.9388 20.2435C91.1061 21.1357 91.2295 21.8765 91.3092 22.4659C91.4127 21.7012 91.5481 20.8728 91.7154 19.9807C91.8907 19.0885 92.042 18.3915 92.1695 17.8897L94.3919 8.35474H98.0362L93.5913 25.8235ZM99.9236 24.1029C99.9236 23.4417 100.103 22.9399 100.461 22.5974C100.82 22.2549 101.334 22.0836 102.003 22.0836C102.68 22.0836 103.197 22.2588 103.556 22.6093C103.922 22.9598 104.106 23.4577 104.106 24.1029C104.106 24.7402 103.918 25.242 103.544 25.6084C103.178 25.9669 102.664 26.1461 102.003 26.1461C101.349 26.1461 100.84 25.9709 100.473 25.6204C100.107 25.2619 99.9236 24.7561 99.9236 24.1029Z" fill="#BF2828"/>
</svg>
