<svg xmlns="http://www.w3.org/2000/svg" width="64" height="64" fill="none"><g clip-path="url(#a)"><path fill="#fff" d="M10.34 29.128a1.282 1.282 0 0 1-1.278-1.287v-5.33c0-.382.168-.743.458-.986l5.735-4.826a1.269 1.269 0 0 1 1.799.165c.453.544.38 1.357-.164 1.813l-5.278 4.439v4.73c0 .712-.573 1.286-1.277 1.286l.004-.004Z"/><path fill="#fff" d="M17.352 30.397c1.622 0 2.939-1.326 2.939-2.96v-8.59c0-1.635-1.317-2.961-2.94-2.961-1.622 0-2.938 1.326-2.938 2.96v8.59c0 1.635 1.316 2.961 2.939 2.961ZM25.706 24.642l-4.652-1.496v2.704l3.875 1.243a1.279 1.279 0 0 0 1.605-.835 1.287 1.287 0 0 0-.828-1.616ZM17.365 15.173c1.966 0 3.56-1.606 3.56-3.587 0-1.98-1.594-3.586-3.56-3.586s-3.56 1.606-3.56 3.586c0 1.981 1.594 3.587 3.56 3.587Z"/><path fill="#fff" d="M24.86 41.148a1.283 1.283 0 0 0 1.26-1.513l-1.484-8.481a1.291 1.291 0 0 0-.777-.97l-5.519-2.252a1.276 1.276 0 0 0-1.666.709c-.263.66.052 1.409.704 1.678l4.863 1.982 1.364 7.782a1.278 1.278 0 0 0 1.255 1.065ZM9.468 45.108l3.18-7.02 1.79-8.343a3.709 3.709 0 0 0 2.318 1.374l-1.64 7.647a1.083 1.083 0 0 1-.086.26l-3.24 7.147a1.276 1.276 0 0 1-1.161.753 1.289 1.289 0 0 1-1.16-1.822v.004Z"/><path fill="#fff" d="M10.896 55.729H0V53.12h8.307v-5.26h11.198v-4.965h10.948v-5.217h10.862V32.41h11.034v-4.995H64v2.608h-9.062v4.995H43.904v5.27H33.042v5.216H22.094v4.965H10.896v5.26Z"/><path stroke="#fff" stroke-linecap="round" stroke-miterlimit="10" stroke-width="4" d="m50.54 17.273-14.106 5.49"/><path fill="#fff" d="m55.43 15.447-4.773 5.8-2.598-7.065 7.37 1.265Z"/></g><defs><clipPath id="a"><path fill="#fff" d="M0 8h64v47.729H0z"/></clipPath></defs></svg>